<?xml version="1.0" encoding="UTF-8"?>
<!DOCTYPE svg PUBLIC "-//W3C//DTD SVG 1.1//EN" "http://www.w3.org/Graphics/SVG/1.1/DTD/svg11.dtd">
<svg xmlns="http://www.w3.org/2000/svg" version="1.1" width="395px" height="292px" style="shape-rendering:geometricPrecision; text-rendering:geometricPrecision; image-rendering:optimizeQuality; fill-rule:evenodd; clip-rule:evenodd" xmlns:xlink="http://www.w3.org/1999/xlink">
<g><path style="opacity:1" fill="#0bf2f7" d="M 203.5,37.5 C 205.599,38.6118 207.933,39.2785 210.5,39.5C 216.594,41.2723 221.594,44.6056 225.5,49.5C 225.427,51.0269 226.094,52.0269 227.5,52.5C 229.316,54.1184 230.649,56.1184 231.5,58.5C 231.796,60.403 232.463,62.0697 233.5,63.5C 233.5,64.8333 233.5,66.1667 233.5,67.5C 233.5,72.5 233.5,77.5 233.5,82.5C 218.5,68.1667 203.833,53.5 189.5,38.5C 190.492,38.6716 191.158,38.3382 191.5,37.5C 195.436,36.7907 199.436,36.7907 203.5,37.5 Z"/></g>
<g><path style="opacity:0.02" fill="#1a3e45" d="M 203.5,37.5 C 206.228,37.1706 208.562,37.8372 210.5,39.5C 207.933,39.2785 205.599,38.6118 203.5,37.5 Z"/></g>
<g><path style="opacity:0.992" fill="#1b7e88" d="M 191.5,37.5 C 191.158,38.3382 190.492,38.6716 189.5,38.5C 187.958,39.3007 186.292,39.634 184.5,39.5C 186.438,37.8372 188.772,37.1706 191.5,37.5 Z"/></g>
<g><path style="opacity:1" fill="#00effe" d="M 189.5,38.5 C 203.833,53.5 218.5,68.1667 233.5,82.5C 233.665,85.8499 233.498,89.1832 233,92.5C 215.579,75.5816 198.746,58.2482 182.5,40.5C 182.842,39.6618 183.508,39.3284 184.5,39.5C 186.292,39.634 187.958,39.3007 189.5,38.5 Z"/></g>
<g><path style="opacity:1" fill="#0ce6fb" d="M 182.5,40.5 C 198.746,58.2482 215.579,75.5816 233,92.5C 233.498,89.1832 233.665,85.8499 233.5,82.5C 233.5,77.5 233.5,72.5 233.5,67.5C 234.493,76.3178 234.827,85.3178 234.5,94.5C 234.5,98.5 234.5,102.5 234.5,106.5C 233.683,108.969 233.183,111.635 233,114.5C 223.298,104.631 213.465,94.9645 203.5,85.5C 203.818,80.9677 203.485,76.6344 202.5,72.5C 201.728,71.3065 200.728,70.3065 199.5,69.5C 199.5,68.8333 199.167,68.5 198.5,68.5C 190.833,60.5 183.167,52.5 175.5,44.5C 175.5,43.8333 175.833,43.5 176.5,43.5C 178.027,43.573 179.027,42.9063 179.5,41.5C 180.391,40.8902 181.391,40.5569 182.5,40.5 Z"/></g>
<g><path style="opacity:0.584" fill="#185460" d="M 179.5,41.5 C 179.027,42.9063 178.027,43.573 176.5,43.5C 176.973,42.0937 177.973,41.427 179.5,41.5 Z"/></g>
<g><path style="opacity:1" fill="#08ddfa" d="M 175.5,44.5 C 183.167,52.5 190.833,60.5 198.5,68.5C 197.209,68.2627 196.209,68.596 195.5,69.5C 194.833,70.1667 194.167,70.8333 193.5,71.5C 192.512,72.795 191.512,74.1283 190.5,75.5C 189.488,76.8717 188.488,78.205 187.5,79.5C 181.261,71.7556 174.428,64.4223 167,57.5C 166.678,55.3111 167.178,53.3111 168.5,51.5C 169.833,48.1667 172.167,45.8333 175.5,44.5 Z"/></g>
<g><path style="opacity:0.42" fill="#1b595f" d="M 225.5,49.5 C 226.906,49.9731 227.573,50.9731 227.5,52.5C 226.094,52.0269 225.427,51.0269 225.5,49.5 Z"/></g>
<g><path style="opacity:0.631" fill="#71492f" d="M 231.5,58.5 C 233.326,60.1475 234.66,62.1475 235.5,64.5C 234.833,64.1667 234.167,63.8333 233.5,63.5C 232.463,62.0697 231.796,60.403 231.5,58.5 Z"/></g>
<g><path style="opacity:1" fill="#0acff9" d="M 168.5,51.5 C 167.178,53.3111 166.678,55.3111 167,57.5C 174.428,64.4223 181.261,71.7556 187.5,79.5C 185.192,83.795 182.526,87.795 179.5,91.5C 172.369,83.8684 165.036,76.3684 157.5,69C 158.252,68.3292 158.586,67.4959 158.5,66.5C 161.056,60.9508 164.39,55.9508 168.5,51.5 Z"/></g>
<g><path style="opacity:0.227" fill="#4c3127" d="M 235.5,64.5 C 236.906,64.9731 237.573,65.9731 237.5,67.5C 236.094,67.0269 235.427,66.0269 235.5,64.5 Z"/></g>
<g><path style="opacity:0.249" fill="#19545e" d="M 195.5,69.5 C 196.209,68.596 197.209,68.2627 198.5,68.5C 199.167,68.5 199.5,68.8333 199.5,69.5C 198.472,69.9258 197.139,69.9258 195.5,69.5 Z"/></g>
<g><path style="opacity:0.216" fill="#412b26" d="M 237.5,67.5 C 238.906,67.9731 239.573,68.9731 239.5,70.5C 238.094,70.0269 237.427,69.0269 237.5,67.5 Z"/></g>
<g><path style="opacity:1" fill="#0cc2f9" d="M 158.5,66.5 C 158.586,67.4959 158.252,68.3292 157.5,69C 165.036,76.3684 172.369,83.8684 179.5,91.5C 177.327,95.8523 174.66,99.8523 171.5,103.5C 163.444,96.4454 156.11,88.7787 149.5,80.5C 152.004,75.4854 155.004,70.8187 158.5,66.5 Z"/></g>
<g><path style="opacity:0.271" fill="#5c362f" d="M 242.5,75.5 C 243.906,75.9731 244.573,76.9731 244.5,78.5C 243.094,78.0269 242.427,77.0269 242.5,75.5 Z"/></g>
<g><path style="opacity:0.597" fill="#87512d" d="M 193.5,71.5 C 192.543,88.1318 192.21,104.799 192.5,121.5C 191.517,117.702 191.183,113.702 191.5,109.5C 191.5,105.5 191.5,101.5 191.5,97.5C 191.825,89.9809 191.492,82.6476 190.5,75.5C 191.512,74.1283 192.512,72.795 193.5,71.5 Z"/></g>
<g><path style="opacity:1" fill="#fa7954" d="M 233.5,63.5 C 234.167,63.8333 234.833,64.1667 235.5,64.5C 235.427,66.0269 236.094,67.0269 237.5,67.5C 237.427,69.0269 238.094,70.0269 239.5,70.5C 240.89,71.8993 241.89,73.5659 242.5,75.5C 242.427,77.0269 243.094,78.0269 244.5,78.5C 244.427,80.0269 245.094,81.0269 246.5,81.5C 246.557,82.609 246.89,83.609 247.5,84.5C 243.167,87.8333 238.833,91.1667 234.5,94.5C 234.827,85.3178 234.493,76.3178 233.5,67.5C 233.5,66.1667 233.5,64.8333 233.5,63.5 Z"/></g>
<g><path style="opacity:0.255" fill="#58332f" d="M 244.5,78.5 C 245.906,78.9731 246.573,79.9731 246.5,81.5C 245.094,81.0269 244.427,80.0269 244.5,78.5 Z"/></g>
<g><path style="opacity:0.298" fill="#163d52" d="M 148.5,81.5 C 148.573,83.0269 147.906,84.0269 146.5,84.5C 146.427,82.9731 147.094,81.9731 148.5,81.5 Z"/></g>
<g><path style="opacity:0.188" fill="#4c2d2d" d="M 246.5,81.5 C 247.906,81.9731 248.573,82.9731 248.5,84.5C 248.167,84.5 247.833,84.5 247.5,84.5C 246.89,83.609 246.557,82.609 246.5,81.5 Z"/></g>
<g><path style="opacity:0.196" fill="#4c2c2e" d="M 248.5,84.5 C 249.906,84.9731 250.573,85.9731 250.5,87.5C 249.094,87.0269 248.427,86.0269 248.5,84.5 Z"/></g>
<g><path style="opacity:1" fill="#0db6f8" d="M 149.5,80.5 C 156.11,88.7787 163.444,96.4454 171.5,103.5C 169.281,108.709 166.281,113.376 162.5,117.5C 155.927,109.422 148.76,101.755 141,94.5C 140.617,95.056 140.117,95.3893 139.5,95.5C 141.446,91.5606 143.779,87.894 146.5,84.5C 147.906,84.0269 148.573,83.0269 148.5,81.5C 148.5,80.8333 148.833,80.5 149.5,80.5 Z"/></g>
<g><path style="opacity:1" fill="#f96d63" d="M 247.5,84.5 C 247.833,84.5 248.167,84.5 248.5,84.5C 248.427,86.0269 249.094,87.0269 250.5,87.5C 252.203,89.5925 253.536,91.9259 254.5,94.5C 253.211,93.4991 251.878,93.6658 250.5,95C 245.318,99.4168 239.984,103.583 234.5,107.5C 234.5,107.167 234.5,106.833 234.5,106.5C 234.5,102.5 234.5,98.5 234.5,94.5C 238.833,91.1667 243.167,87.8333 247.5,84.5 Z"/></g>
<g><path style="opacity:1" fill="#fd903a" d="M 190.5,75.5 C 191.492,82.6476 191.825,89.9809 191.5,97.5C 182.095,104.912 172.428,111.912 162.5,118.5C 162.5,118.167 162.5,117.833 162.5,117.5C 166.281,113.376 169.281,108.709 171.5,103.5C 174.66,99.8523 177.327,95.8523 179.5,91.5C 182.526,87.795 185.192,83.795 187.5,79.5C 188.488,78.205 189.488,76.8717 190.5,75.5 Z"/></g>
<g><path style="opacity:1" fill="#03d8fe" d="M 203.5,85.5 C 213.465,94.9645 223.298,104.631 233,114.5C 233.183,111.635 233.683,108.969 234.5,106.5C 234.5,106.833 234.5,107.167 234.5,107.5C 234.5,111.5 234.5,115.5 234.5,119.5C 234.5,120.167 234.5,120.833 234.5,121.5C 233.675,125.647 233.175,129.981 233,134.5C 223.298,124.631 213.465,114.964 203.5,105.5C 203.5,98.8333 203.5,92.1667 203.5,85.5 Z"/></g>
<g><path style="opacity:1" fill="#fc6571" d="M 254.5,94.5 C 255.167,94.5 255.5,94.8333 255.5,95.5C 255.427,97.0269 256.094,98.0269 257.5,98.5C 258.401,99.2905 259.068,100.29 259.5,101.5C 259.5,101.833 259.5,102.167 259.5,102.5C 258.883,102.389 258.383,102.056 258,101.5C 250.227,107.63 242.393,113.63 234.5,119.5C 234.5,115.5 234.5,111.5 234.5,107.5C 239.984,103.583 245.318,99.4168 250.5,95C 251.878,93.6658 253.211,93.4991 254.5,94.5 Z"/></g>
<g><path style="opacity:0.29" fill="#5c2f37" d="M 255.5,95.5 C 256.906,95.9731 257.573,96.9731 257.5,98.5C 256.094,98.0269 255.427,97.0269 255.5,95.5 Z"/></g>
<g><path style="opacity:0.594" fill="#1a586b" d="M 202.5,72.5 C 203.485,76.6344 203.818,80.9677 203.5,85.5C 203.5,92.1667 203.5,98.8333 203.5,105.5C 204.113,111.271 203.446,116.604 201.5,121.5C 202.341,105.101 202.674,88.7677 202.5,72.5 Z"/></g>
<g><path style="opacity:1" fill="#04a9f7" d="M 162.5,117.5 C 162.5,117.833 162.5,118.167 162.5,118.5C 162.167,119.167 161.833,119.833 161.5,120.5C 160.662,120.842 160.328,121.508 160.5,122.5C 159.026,123.436 158.026,124.77 157.5,126.5C 156.974,128.23 155.974,129.564 154.5,130.5C 147.927,122.422 140.76,114.755 133,107.5C 132.292,108.381 131.458,109.047 130.5,109.5C 133.004,104.485 136.004,99.8187 139.5,95.5C 140.117,95.3893 140.617,95.056 141,94.5C 148.76,101.755 155.927,109.422 162.5,117.5 Z"/></g>
<g><path style="opacity:1" fill="#fe8645" d="M 191.5,97.5 C 191.5,101.5 191.5,105.5 191.5,109.5C 181.238,116.422 171.238,123.756 161.5,131.5C 161.5,127.833 161.5,124.167 161.5,120.5C 161.833,119.833 162.167,119.167 162.5,118.5C 172.428,111.912 182.095,104.912 191.5,97.5 Z"/></g>
<g><path style="opacity:0.235" fill="#4c2833" d="M 259.5,101.5 C 260.906,101.973 261.573,102.973 261.5,104.5C 260.5,104.167 259.833,103.5 259.5,102.5C 259.5,102.167 259.5,101.833 259.5,101.5 Z"/></g>
<g><path style="opacity:1" fill="#f75b7b" d="M 259.5,102.5 C 259.833,103.5 260.5,104.167 261.5,104.5C 261.427,106.027 262.094,107.027 263.5,107.5C 264.6,108.605 265.267,109.938 265.5,111.5C 264.577,110.697 263.577,110.53 262.5,111C 255.644,116.691 248.644,122.191 241.5,127.5C 240.614,128.325 240.281,129.325 240.5,130.5C 238.554,129.965 237.554,128.632 237.5,126.5C 236.974,124.77 235.974,123.436 234.5,122.5C 234.5,122.167 234.5,121.833 234.5,121.5C 234.5,120.833 234.5,120.167 234.5,119.5C 242.393,113.63 250.227,107.63 258,101.5C 258.383,102.056 258.883,102.389 259.5,102.5 Z"/></g>
<g><path style="opacity:0.22" fill="#4c2734" d="M 261.5,104.5 C 262.906,104.973 263.573,105.973 263.5,107.5C 262.094,107.027 261.427,106.027 261.5,104.5 Z"/></g>
<g><path style="opacity:1" fill="#fe7f4f" d="M 191.5,109.5 C 191.183,113.702 191.517,117.702 192.5,121.5C 182.305,126.691 172.139,132.358 162,138.5C 161.503,136.19 161.337,133.857 161.5,131.5C 171.238,123.756 181.238,116.422 191.5,109.5 Z"/></g>
<g><path style="opacity:1" fill="#059cf6" d="M 154.5,130.5 C 152.081,135.009 149.414,139.342 146.5,143.5C 146.649,142.448 146.483,141.448 146,140.5C 139,133.5 132,126.5 125,119.5C 124.617,120.056 124.117,120.389 123.5,120.5C 125.087,116.317 127.421,112.65 130.5,109.5C 131.458,109.047 132.292,108.381 133,107.5C 140.76,114.755 147.927,122.422 154.5,130.5 Z"/></g>
<g><path style="opacity:1" fill="#f75287" d="M 265.5,111.5 C 267.326,113.147 268.66,115.147 269.5,117.5C 262.327,123.168 254.993,128.668 247.5,134C 245.963,135.11 245.297,136.61 245.5,138.5C 243.336,136.178 241.669,133.511 240.5,130.5C 240.281,129.325 240.614,128.325 241.5,127.5C 248.644,122.191 255.644,116.691 262.5,111C 263.577,110.53 264.577,110.697 265.5,111.5 Z"/></g>
<g><path style="opacity:1" fill="#02cbfc" d="M 203.5,105.5 C 213.465,114.964 223.298,124.631 233,134.5C 233.175,129.981 233.675,125.647 234.5,121.5C 234.5,121.833 234.5,122.167 234.5,122.5C 234.5,124.5 234.5,126.5 234.5,128.5C 234.824,132.555 234.491,136.555 233.5,140.5C 232.817,140.863 232.15,141.196 231.5,141.5C 229.973,141.427 228.973,142.094 228.5,143.5C 226.716,143.893 225.05,144.559 223.5,145.5C 215.5,138.167 207.833,130.5 200.5,122.5C 200.5,121.833 200.833,121.5 201.5,121.5C 203.446,116.604 204.113,111.271 203.5,105.5 Z"/></g>
<g><path style="opacity:1" fill="#f84c90" d="M 269.5,117.5 C 270.974,118.436 271.974,119.77 272.5,121.5C 272.5,122.167 272.5,122.833 272.5,123.5C 265.932,129.463 258.932,134.963 251.5,140C 249.963,141.11 249.297,142.61 249.5,144.5C 247.674,142.853 246.34,140.853 245.5,138.5C 245.297,136.61 245.963,135.11 247.5,134C 254.993,128.668 262.327,123.168 269.5,117.5 Z"/></g>
<g><path style="opacity:0.122" fill="#141a25" d="M 160.5,122.5 C 160.5,125.167 160.5,127.833 160.5,130.5C 159.978,128.781 158.978,127.448 157.5,126.5C 158.026,124.77 159.026,123.436 160.5,122.5 Z"/></g>
<g><path style="opacity:0.09" fill="#1b1820" d="M 234.5,122.5 C 235.974,123.436 236.974,124.77 237.5,126.5C 236.5,127.167 235.5,127.833 234.5,128.5C 234.5,126.5 234.5,124.5 234.5,122.5 Z"/></g>
<g><path style="opacity:0.235" fill="#4b233a" d="M 272.5,121.5 C 273.906,121.973 274.573,122.973 274.5,124.5C 273.833,124.167 273.167,123.833 272.5,123.5C 272.5,122.833 272.5,122.167 272.5,121.5 Z"/></g>
<g><path style="opacity:1" fill="#068ff4" d="M 146.5,143.5 C 144.192,147.795 141.526,151.795 138.5,155.5C 131.703,148.202 124.703,141.035 117.5,134C 115.934,133.7 114.601,134.2 113.5,135.5C 116.092,129.976 119.425,124.976 123.5,120.5C 124.117,120.389 124.617,120.056 125,119.5C 132,126.5 139,133.5 146,140.5C 146.483,141.448 146.649,142.448 146.5,143.5 Z"/></g>
<g><path style="opacity:1" fill="#09befc" d="M 199.5,122.5 C 199.833,122.5 200.167,122.5 200.5,122.5C 207.833,130.5 215.5,138.167 223.5,145.5C 222.71,146.401 221.71,147.068 220.5,147.5C 217.661,149.42 214.661,151.087 211.5,152.5C 210.448,152.649 209.448,152.483 208.5,152C 201.833,145.333 195.167,138.667 188.5,132C 187.552,131.517 186.552,131.351 185.5,131.5C 190.167,128.5 194.833,125.5 199.5,122.5 Z"/></g>
<g><path style="opacity:1" fill="#f64598" d="M 272.5,123.5 C 273.167,123.833 273.833,124.167 274.5,124.5C 274.427,126.027 275.094,127.027 276.5,127.5C 277.551,128.222 278.218,129.222 278.5,130.5C 277.577,129.697 276.577,129.53 275.5,130C 267.652,135.759 259.985,141.759 252.5,148C 253.252,148.671 253.586,149.504 253.5,150.5C 251.674,148.853 250.34,146.853 249.5,144.5C 249.297,142.61 249.963,141.11 251.5,140C 258.932,134.963 265.932,129.463 272.5,123.5 Z"/></g>
<g><path style="opacity:0.184" fill="#452138" d="M 274.5,124.5 C 275.906,124.973 276.573,125.973 276.5,127.5C 275.094,127.027 274.427,126.027 274.5,124.5 Z"/></g>
<g><path style="opacity:1" fill="#91594c" d="M 194.5,122.5 C 196.167,123.833 197.833,123.833 199.5,122.5C 194.833,125.5 190.167,128.5 185.5,131.5C 181.164,133.332 177.164,135.665 173.5,138.5C 170.013,139.745 167.013,141.745 164.5,144.5C 163.889,142.225 162.555,140.559 160.5,139.5C 164.956,138.803 169.29,137.636 173.5,136C 180.076,132.144 186.742,128.477 193.5,125C 194.252,124.329 194.586,123.496 194.5,122.5 Z"/></g>
<g><path style="opacity:1" fill="#06b2fc" d="M 185.5,131.5 C 186.552,131.351 187.552,131.517 188.5,132C 195.167,138.667 201.833,145.333 208.5,152C 209.448,152.483 210.448,152.649 211.5,152.5C 206.941,155.947 201.941,158.613 196.5,160.5C 188.833,153.167 181.167,145.833 173.5,138.5C 177.164,135.665 181.164,133.332 185.5,131.5 Z"/></g>
<g><path style="opacity:1" fill="#f93da6" d="M 278.5,130.5 C 279.752,132.001 280.752,133.668 281.5,135.5C 281.427,137.027 282.094,138.027 283.5,138.5C 284.338,138.842 284.672,139.508 284.5,140.5C 275.514,145.673 267.18,151.839 259.5,159C 260.252,159.671 260.586,160.504 260.5,161.5C 257.779,158.106 255.446,154.439 253.5,150.5C 253.586,149.504 253.252,148.671 252.5,148C 259.985,141.759 267.652,135.759 275.5,130C 276.577,129.53 277.577,129.697 278.5,130.5 Z"/></g>
<g><path style="opacity:1" fill="#cd6b4d" d="M 161.5,120.5 C 161.5,124.167 161.5,127.833 161.5,131.5C 161.337,133.857 161.503,136.19 162,138.5C 172.139,132.358 182.305,126.691 192.5,121.5C 193.492,121.328 194.158,121.662 194.5,122.5C 194.586,123.496 194.252,124.329 193.5,125C 186.742,128.477 180.076,132.144 173.5,136C 169.29,137.636 164.956,138.803 160.5,139.5C 160.5,136.5 160.5,133.5 160.5,130.5C 160.5,127.833 160.5,125.167 160.5,122.5C 160.328,121.508 160.662,120.842 161.5,120.5 Z"/></g>
<g><path style="opacity:0.322" fill="#592348" d="M 281.5,135.5 C 282.906,135.973 283.573,136.973 283.5,138.5C 282.094,138.027 281.427,137.027 281.5,135.5 Z"/></g>
<g><path style="opacity:1" fill="#0484f7" d="M 138.5,155.5 C 136.316,159.881 133.65,163.881 130.5,167.5C 123.703,160.202 116.703,153.035 109.5,146C 108.423,145.53 107.423,145.697 106.5,146.5C 108.446,142.561 110.779,138.894 113.5,135.5C 114.601,134.2 115.934,133.7 117.5,134C 124.703,141.035 131.703,148.202 138.5,155.5 Z"/></g>
<g><path style="opacity:0.052" fill="#1b202b" d="M 231.5,141.5 C 231.5,142.833 231.5,144.167 231.5,145.5C 230.5,144.833 229.5,144.167 228.5,143.5C 228.973,142.094 229.973,141.427 231.5,141.5 Z"/></g>
<g><path style="opacity:1" fill="#02a5fb" d="M 173.5,138.5 C 181.167,145.833 188.833,153.167 196.5,160.5C 196.5,160.833 196.5,161.167 196.5,161.5C 193.979,163.019 191.479,164.686 189,166.5C 188.505,168.473 188.338,170.473 188.5,172.5C 179.833,164.167 171.167,155.833 162.5,147.5C 162.932,146.29 163.599,145.29 164.5,144.5C 167.013,141.745 170.013,139.745 173.5,138.5 Z"/></g>
<g><path style="opacity:1" fill="#f633b1" d="M 284.5,140.5 C 286.547,142.55 288.214,144.883 289.5,147.5C 281.01,152.299 273.01,157.966 265.5,164.5C 264.614,165.325 264.281,166.325 264.5,167.5C 262.674,165.853 261.34,163.853 260.5,161.5C 260.586,160.504 260.252,159.671 259.5,159C 267.18,151.839 275.514,145.673 284.5,140.5 Z"/></g>
<g><path style="opacity:1" fill="#0677f5" d="M 130.5,167.5 C 128.281,172.709 125.281,177.376 121.5,181.5C 121.631,180.761 121.464,180.094 121,179.5C 113.911,171.906 106.411,164.906 98.5,158.5C 100.673,154.148 103.34,150.148 106.5,146.5C 107.423,145.697 108.423,145.53 109.5,146C 116.703,153.035 123.703,160.202 130.5,167.5 Z"/></g>
<g><path style="opacity:0.09" fill="#172e46" d="M 160.5,150.5 C 160.34,152.153 159.674,153.486 158.5,154.5C 158.229,152.62 158.896,151.287 160.5,150.5 Z"/></g>
<g><path style="opacity:1" fill="#f62bbc" d="M 289.5,147.5 C 292,150.494 294,153.827 295.5,157.5C 294.542,157.047 293.708,156.381 293,155.5C 286.45,161.051 279.617,166.217 272.5,171C 270.859,172.129 269.859,173.629 269.5,175.5C 267.336,173.178 265.669,170.511 264.5,167.5C 264.281,166.325 264.614,165.325 265.5,164.5C 273.01,157.966 281.01,152.299 289.5,147.5 Z"/></g>
<g><path style="opacity:1" fill="#f94a94" d="M 231.5,146.5 C 235.358,149.888 237.358,154.222 237.5,159.5C 236.842,158.602 236.176,157.602 235.5,156.5C 225.815,163.858 216.148,171.191 206.5,178.5C 206.5,174.5 206.5,170.5 206.5,166.5C 206.5,165.833 206.833,165.5 207.5,165.5C 211.331,161.515 215.664,158.015 220.5,155C 222.53,153.104 224.197,150.937 225.5,148.5C 227.411,147.523 229.411,146.857 231.5,146.5 Z"/></g>
<g><path style="opacity:1" fill="#009afe" d="M 162.5,147.5 C 171.167,155.833 179.833,164.167 188.5,172.5C 188.5,179.833 188.5,187.167 188.5,194.5C 178.167,184.5 167.833,174.5 157.5,164.5C 157.616,161.14 157.949,157.807 158.5,154.5C 159.674,153.486 160.34,152.153 160.5,150.5C 160.427,148.973 161.094,147.973 162.5,147.5 Z"/></g>
<g><path style="opacity:1" fill="#b04971" d="M 220.5,147.5 C 219.952,149.394 218.952,151.06 217.5,152.5C 213.892,155.769 210.225,159.103 206.5,162.5C 207.127,163.417 207.461,164.417 207.5,165.5C 206.833,165.5 206.5,165.833 206.5,166.5C 203.408,164.287 200.074,162.621 196.5,161.5C 196.5,161.167 196.5,160.833 196.5,160.5C 201.941,158.613 206.941,155.947 211.5,152.5C 214.661,151.087 217.661,149.42 220.5,147.5 Z"/></g>
<g><path style="opacity:1" fill="#d84c81" d="M 228.5,143.5 C 229.5,144.167 230.5,144.833 231.5,145.5C 231.5,145.833 231.5,146.167 231.5,146.5C 229.411,146.857 227.411,147.523 225.5,148.5C 224.197,150.937 222.53,153.104 220.5,155C 215.664,158.015 211.331,161.515 207.5,165.5C 207.461,164.417 207.127,163.417 206.5,162.5C 210.225,159.103 213.892,155.769 217.5,152.5C 218.952,151.06 219.952,149.394 220.5,147.5C 221.71,147.068 222.71,146.401 223.5,145.5C 225.05,144.559 226.716,143.893 228.5,143.5 Z"/></g>
<g><path style="opacity:1" fill="#f723c9" d="M 295.5,157.5 C 297.326,159.147 298.66,161.147 299.5,163.5C 291.378,169.115 283.378,174.949 275.5,181C 274.829,181.986 274.829,183.153 275.5,184.5C 272.769,182.054 270.769,179.054 269.5,175.5C 269.859,173.629 270.859,172.129 272.5,171C 279.617,166.217 286.45,161.051 293,155.5C 293.708,156.381 294.542,157.047 295.5,157.5 Z"/></g>
<g><path style="opacity:1" fill="#f43f9e" d="M 237.5,159.5 C 238.481,173.088 238.815,186.754 238.5,200.5C 237.527,198.052 237.194,195.385 237.5,192.5C 237.5,188.5 237.5,184.5 237.5,180.5C 237.666,176.154 237.499,171.821 237,167.5C 227.072,175.54 216.906,183.207 206.5,190.5C 206.5,186.5 206.5,182.5 206.5,178.5C 216.148,171.191 225.815,163.858 235.5,156.5C 236.176,157.602 236.842,158.602 237.5,159.5 Z"/></g>
<g><path style="opacity:0.29" fill="#162b54" d="M 96.5,161.5 C 96.573,163.027 95.9063,164.027 94.5,164.5C 94.427,162.973 95.0937,161.973 96.5,161.5 Z"/></g>
<g><path style="opacity:1" fill="#046cf7" d="M 98.5,158.5 C 106.411,164.906 113.911,171.906 121,179.5C 121.464,180.094 121.631,180.761 121.5,181.5C 119.327,185.852 116.66,189.852 113.5,193.5C 106.927,185.422 99.7603,177.755 92,170.5C 91.2917,171.381 90.4584,172.047 89.5,172.5C 90.1103,170.566 91.1103,168.899 92.5,167.5C 93.9063,167.027 94.573,166.027 94.5,164.5C 95.9063,164.027 96.573,163.027 96.5,161.5C 96.9321,160.29 97.5987,159.29 98.5,158.5 Z"/></g>
<g><path style="opacity:0.212" fill="#16284e" d="M 94.5,164.5 C 94.573,166.027 93.9063,167.027 92.5,167.5C 92.427,165.973 93.0937,164.973 94.5,164.5 Z"/></g>
<g><path style="opacity:1" fill="#f81ad6" d="M 299.5,163.5 C 301.664,165.822 303.331,168.489 304.5,171.5C 296.127,177.354 288.127,183.688 280.5,190.5C 281.127,191.417 281.461,192.417 281.5,193.5C 278.759,191.025 276.759,188.025 275.5,184.5C 274.829,183.153 274.829,181.986 275.5,181C 283.378,174.949 291.378,169.115 299.5,163.5 Z"/></g>
<g><path style="opacity:1" fill="#008eff" d="M 157.5,164.5 C 167.833,174.5 178.167,184.5 188.5,194.5C 188.5,201.167 188.5,207.833 188.5,214.5C 178.167,204.5 167.833,194.5 157.5,184.5C 157.5,177.833 157.5,171.167 157.5,164.5 Z"/></g>
<g><path style="opacity:1" fill="#ff39b0" d="M 237.5,180.5 C 227.345,188.41 217.012,196.077 206.5,203.5C 206.5,199.167 206.5,194.833 206.5,190.5C 216.906,183.207 227.072,175.54 237,167.5C 237.499,171.821 237.666,176.154 237.5,180.5 Z"/></g>
<g><path style="opacity:1" fill="#f811e4" d="M 304.5,171.5 C 305.974,172.436 306.974,173.77 307.5,175.5C 307.427,177.027 308.094,178.027 309.5,178.5C 311.664,180.822 313.331,183.489 314.5,186.5C 313.542,186.047 312.708,185.381 312,184.5C 304.358,189.975 296.858,195.641 289.5,201.5C 288.614,202.325 288.281,203.325 288.5,204.5C 285.421,201.35 283.087,197.683 281.5,193.5C 281.461,192.417 281.127,191.417 280.5,190.5C 288.127,183.688 296.127,177.354 304.5,171.5 Z"/></g>
<g><path style="opacity:0.369" fill="#172d61" d="M 87.5,175.5 C 87.573,177.027 86.9063,178.027 85.5,178.5C 85.427,176.973 86.0937,175.973 87.5,175.5 Z"/></g>
<g><path style="opacity:1" fill="#0360f9" d="M 113.5,193.5 C 111.281,198.709 108.281,203.376 104.5,207.5C 104.649,206.448 104.483,205.448 104,204.5C 96.9641,197.632 90.1307,190.632 83.5,183.5C 83.5,182.833 83.5,182.167 83.5,181.5C 84.9063,181.027 85.573,180.027 85.5,178.5C 86.9063,178.027 87.573,177.027 87.5,175.5C 87.427,173.973 88.0937,172.973 89.5,172.5C 90.4584,172.047 91.2917,171.381 92,170.5C 99.7603,177.755 106.927,185.422 113.5,193.5 Z"/></g>
<g><path style="opacity:0.361" fill="#591b59" d="M 307.5,175.5 C 308.906,175.973 309.573,176.973 309.5,178.5C 308.094,178.027 307.427,177.027 307.5,175.5 Z"/></g>
<g><path style="opacity:0.543" fill="#193b66" d="M 158.5,154.5 C 157.949,157.807 157.616,161.14 157.5,164.5C 157.5,171.167 157.5,177.833 157.5,184.5C 158.113,190.271 157.446,195.604 155.5,200.5C 155.333,188.495 155.5,176.495 156,164.5C 156.026,160.821 156.86,157.488 158.5,154.5 Z"/></g>
<g><path style="opacity:0.353" fill="#172b60" d="M 85.5,178.5 C 85.573,180.027 84.9063,181.027 83.5,181.5C 83.427,179.973 84.0937,178.973 85.5,178.5 Z"/></g>
<g><path style="opacity:0.302" fill="#162754" d="M 83.5,181.5 C 83.5,182.167 83.5,182.833 83.5,183.5C 82.8333,183.833 82.1667,184.167 81.5,184.5C 81.427,182.973 82.0937,181.973 83.5,181.5 Z"/></g>
<g><path style="opacity:0.22" fill="#16244d" d="M 81.5,184.5 C 81.573,186.027 80.9063,187.027 79.5,187.5C 79.427,185.973 80.0937,184.973 81.5,184.5 Z"/></g>
<g><path style="opacity:1" fill="#ff30bc" d="M 237.5,180.5 C 237.5,184.5 237.5,188.5 237.5,192.5C 226.903,199.757 216.57,207.423 206.5,215.5C 206.5,211.5 206.5,207.5 206.5,203.5C 217.012,196.077 227.345,188.41 237.5,180.5 Z"/></g>
<g><path style="opacity:1" fill="#f903f8" d="M 314.5,186.5 C 321.318,195.3 326.984,204.8 331.5,215C 330.944,215.383 330.611,215.883 330.5,216.5C 330.5,220.833 330.5,225.167 330.5,229.5C 325.978,248.346 313.978,258.68 294.5,260.5C 288.997,260.083 283.664,258.916 278.5,257C 266.945,251.059 255.612,244.892 244.5,238.5C 243.294,237.12 243.627,235.953 245.5,235C 253.119,229.716 260.452,224.049 267.5,218C 269.545,217.51 271.545,217.677 273.5,218.5C 280.511,221.422 287.344,224.755 294,228.5C 294.671,227.748 295.504,227.414 296.5,227.5C 298.5,227.5 299.5,226.5 299.5,224.5C 296.373,217.582 292.706,210.916 288.5,204.5C 288.281,203.325 288.614,202.325 289.5,201.5C 296.858,195.641 304.358,189.975 312,184.5C 312.708,185.381 313.542,186.047 314.5,186.5 Z"/></g>
<g><path style="opacity:0.224" fill="#162248" d="M 79.5,187.5 C 79.573,189.027 78.9063,190.027 77.5,190.5C 77.427,188.973 78.0937,187.973 79.5,187.5 Z"/></g>
<g><path style="opacity:1" fill="#0554f8" d="M 83.5,183.5 C 90.1307,190.632 96.9641,197.632 104,204.5C 104.483,205.448 104.649,206.448 104.5,207.5C 102.913,211.683 100.579,215.35 97.5,218.5C 90.4454,210.444 82.7787,203.11 74.5,196.5C 74.5,196.167 74.5,195.833 74.5,195.5C 75.9063,195.027 76.573,194.027 76.5,192.5C 76.3284,191.508 76.6618,190.842 77.5,190.5C 78.9063,190.027 79.573,189.027 79.5,187.5C 80.9063,187.027 81.573,186.027 81.5,184.5C 82.1667,184.167 82.8333,183.833 83.5,183.5 Z"/></g>
<g><path style="opacity:0.475" fill="#192c6f" d="M 76.5,192.5 C 76.573,194.027 75.9063,195.027 74.5,195.5C 74.427,193.973 75.0937,192.973 76.5,192.5 Z"/></g>
<g><path style="opacity:1" fill="#0280fa" d="M 157.5,184.5 C 167.833,194.5 178.167,204.5 188.5,214.5C 188.799,216.604 188.466,218.604 187.5,220.5C 183.931,222.453 180.264,224.119 176.5,225.5C 169.369,217.868 162.036,210.368 154.5,203C 153.552,202.517 152.552,202.351 151.5,202.5C 152.514,201.326 153.847,200.66 155.5,200.5C 157.446,195.604 158.113,190.271 157.5,184.5 Z"/></g>
<g><path style="opacity:1" fill="#054df8" d="M 74.5,196.5 C 82.7787,203.11 90.4454,210.444 97.5,218.5C 97.5,218.833 97.5,219.167 97.5,219.5C 96.0937,219.973 95.427,220.973 95.5,222.5C 95.5,222.833 95.5,223.167 95.5,223.5C 95.427,225.027 96.0937,226.027 97.5,226.5C 98.8786,228.597 100.545,228.93 102.5,227.5C 104.849,225.659 107.515,224.326 110.5,223.5C 111.552,223.351 112.552,223.517 113.5,224C 121.036,231.368 128.369,238.868 135.5,246.5C 130.984,249.927 125.984,252.593 120.5,254.5C 104.552,236.884 87.8851,219.884 70.5,203.5C 70.5,202.833 70.5,202.167 70.5,201.5C 71.9063,201.027 72.573,200.027 72.5,198.5C 73.5,198.167 74.1667,197.5 74.5,196.5 Z"/></g>
<g><path style="opacity:0.353" fill="#172760" d="M 74.5,195.5 C 74.5,195.833 74.5,196.167 74.5,196.5C 74.1667,197.5 73.5,198.167 72.5,198.5C 72.427,196.973 73.0937,195.973 74.5,195.5 Z"/></g>
<g><path style="opacity:0.282" fill="#182458" d="M 72.5,198.5 C 72.573,200.027 71.9063,201.027 70.5,201.5C 70.427,199.973 71.0937,198.973 72.5,198.5 Z"/></g>
<g><path style="opacity:1" fill="#fa27c6" d="M 237.5,192.5 C 237.194,195.385 237.527,198.052 238.5,200.5C 240.153,200.66 241.486,201.326 242.5,202.5C 241.448,202.351 240.448,202.517 239.5,203C 230.643,209.373 222.31,216.206 214.5,223.5C 209.421,223.005 206.754,220.339 206.5,215.5C 216.57,207.423 226.903,199.757 237.5,192.5 Z"/></g>
<g><path style="opacity:0.286" fill="#162252" d="M 70.5,201.5 C 70.5,202.167 70.5,202.833 70.5,203.5C 69.8333,203.833 69.1667,204.167 68.5,204.5C 68.427,202.973 69.0937,201.973 70.5,201.5 Z"/></g>
<g><path style="opacity:1" fill="#f81ed0" d="M 242.5,202.5 C 246.151,203.659 249.485,205.326 252.5,207.5C 250.692,207.491 249.025,207.991 247.5,209C 240.784,214.717 233.784,220.05 226.5,225C 225.177,225.816 224.511,226.983 224.5,228.5C 220.849,227.341 217.515,225.674 214.5,223.5C 222.31,216.206 230.643,209.373 239.5,203C 240.448,202.517 241.448,202.351 242.5,202.5 Z"/></g>
<g><path style="opacity:0.424" fill="#181e41" d="M 68.5,204.5 C 68.573,206.027 67.9063,207.027 66.5,207.5C 66.427,205.973 67.0937,204.973 68.5,204.5 Z"/></g>
<g><path style="opacity:1" fill="#0970f2" d="M 151.5,202.5 C 152.552,202.351 153.552,202.517 154.5,203C 162.036,210.368 169.369,217.868 176.5,225.5C 171.953,228.941 166.953,231.608 161.5,233.5C 162.303,232.577 162.47,231.577 162,230.5C 155.167,223.667 148.333,216.833 141.5,210C 140.207,209.51 138.873,209.343 137.5,209.5C 141.849,206.659 146.516,204.326 151.5,202.5 Z"/></g>
<g><path style="opacity:1" fill="#0143fd" d="M 70.5,203.5 C 87.8851,219.884 104.552,236.884 120.5,254.5C 117.63,256.794 114.297,258.128 110.5,258.5C 109.167,258.5 107.833,258.5 106.5,258.5C 92.5,244.833 78.5,231.167 64.5,217.5C 64.5,217.167 64.5,216.833 64.5,216.5C 64.5,216.167 64.5,215.833 64.5,215.5C 65.9238,213.485 66.5905,211.152 66.5,208.5C 66.5,208.167 66.5,207.833 66.5,207.5C 67.9063,207.027 68.573,206.027 68.5,204.5C 69.1667,204.167 69.8333,203.833 70.5,203.5 Z"/></g>
<g><path style="opacity:1" fill="#0466f8" d="M 137.5,209.5 C 138.873,209.343 140.207,209.51 141.5,210C 148.333,216.833 155.167,223.667 162,230.5C 162.47,231.577 162.303,232.577 161.5,233.5C 157.361,236.072 153.027,238.405 148.5,240.5C 141.556,231.888 133.889,223.888 125.5,216.5C 125.5,216.167 125.5,215.833 125.5,215.5C 129.085,215.708 131.751,214.375 133.5,211.5C 134.514,210.326 135.847,209.66 137.5,209.5 Z"/></g>
<g><path style="opacity:1" fill="#1d3e8a" d="M 133.5,211.5 C 131.751,214.375 129.085,215.708 125.5,215.5C 127.849,213.659 130.515,212.326 133.5,211.5 Z"/></g>
<g><path style="opacity:0.788" fill="#1d266f" d="M 66.5,208.5 C 66.5905,211.152 65.9238,213.485 64.5,215.5C 64.0618,215.565 63.7284,215.399 63.5,215C 64.1319,212.585 65.1319,210.418 66.5,208.5 Z"/></g>
<g><path style="opacity:1" fill="#f612e2" d="M 252.5,207.5 C 259.949,210.391 266.949,214.057 273.5,218.5C 271.545,217.677 269.545,217.51 267.5,218C 260.452,224.049 253.119,229.716 245.5,235C 243.627,235.953 243.294,237.12 244.5,238.5C 237.547,235.69 230.88,232.357 224.5,228.5C 224.511,226.983 225.177,225.816 226.5,225C 233.784,220.05 240.784,214.717 247.5,209C 249.025,207.991 250.692,207.491 252.5,207.5 Z"/></g>
<g><path style="opacity:0.525" fill="#192752" d="M 125.5,215.5 C 125.5,215.833 125.5,216.167 125.5,216.5C 124.609,217.11 123.609,217.443 122.5,217.5C 122.973,216.094 123.973,215.427 125.5,215.5 Z"/></g>
<g><path style="opacity:0.075" fill="#191b3e" d="M 64.5,216.5 C 64.5,216.833 64.5,217.167 64.5,217.5C 64.5,221.5 64.5,225.5 64.5,229.5C 63.8826,229.389 63.3826,229.056 63,228.5C 62.8333,226.833 62.6667,225.167 62.5,223.5C 62.3161,220.795 62.9827,218.462 64.5,216.5 Z"/></g>
<g><path style="opacity:0.601" fill="#54195a" d="M 330.5,216.5 C 331.997,218.29 332.664,220.456 332.5,223C 332.664,225.544 331.997,227.71 330.5,229.5C 330.5,225.167 330.5,220.833 330.5,216.5 Z"/></g>
<g><path style="opacity:0.02" fill="#161a30" d="M 97.5,219.5 C 97.573,221.027 96.9063,222.027 95.5,222.5C 95.427,220.973 96.0937,219.973 97.5,219.5 Z"/></g>
<g><path style="opacity:1" fill="#0659f5" d="M 125.5,216.5 C 133.889,223.888 141.556,231.888 148.5,240.5C 144.561,243.302 140.228,245.302 135.5,246.5C 128.369,238.868 121.036,231.368 113.5,224C 112.552,223.517 111.552,223.351 110.5,223.5C 114.182,220.992 118.182,218.992 122.5,217.5C 123.609,217.443 124.609,217.11 125.5,216.5 Z"/></g>
<g><path style="opacity:0.122" fill="#141a30" d="M 95.5,223.5 C 96.9063,223.973 97.573,224.973 97.5,226.5C 96.0937,226.027 95.427,225.027 95.5,223.5 Z"/></g>
<g><path style="opacity:0.816" fill="#811a86" d="M 299.5,224.5 C 299.5,226.5 298.5,227.5 296.5,227.5C 297.167,226.167 298.167,225.167 299.5,224.5 Z"/></g>
<g><path style="opacity:1" fill="#0536f6" d="M 64.5,217.5 C 78.5,231.167 92.5,244.833 106.5,258.5C 106.5,258.833 106.5,259.167 106.5,259.5C 102.532,260.766 98.5323,260.766 94.5,259.5C 93.4324,258.566 92.099,258.232 90.5,258.5C 87.3511,258.585 84.6845,257.585 82.5,255.5C 81.7377,253.738 80.4044,252.738 78.5,252.5C 77.7377,250.738 76.4044,249.738 74.5,249.5C 73.5,249.167 72.8333,248.5 72.5,247.5C 72.573,245.973 71.9063,244.973 70.5,244.5C 69.0937,244.027 68.427,243.027 68.5,241.5C 68.3404,239.847 67.6737,238.514 66.5,237.5C 66.1249,235.302 65.4582,233.302 64.5,231.5C 64.5,230.833 64.5,230.167 64.5,229.5C 64.5,225.5 64.5,221.5 64.5,217.5 Z"/></g>
<g><path style="opacity:0.047" fill="#161c39" d="M 97.5,226.5 C 99.1172,227.038 100.784,227.371 102.5,227.5C 100.545,228.93 98.8786,228.597 97.5,226.5 Z"/></g>
<g><path style="opacity:0.026" fill="#161830" d="M 64.5,231.5 C 65.4582,233.302 66.1249,235.302 66.5,237.5C 64.7202,236.01 64.0535,234.01 64.5,231.5 Z"/></g>
<g><path style="opacity:0.037" fill="#181938" d="M 66.5,237.5 C 67.6737,238.514 68.3404,239.847 68.5,241.5C 66.8958,240.713 66.2291,239.38 66.5,237.5 Z"/></g>
<g><path style="opacity:0.047" fill="#18193b" d="M 70.5,244.5 C 71.9063,244.973 72.573,245.973 72.5,247.5C 71.0937,247.027 70.427,246.027 70.5,244.5 Z"/></g>
<g><path style="opacity:0.753" fill="#1d206a" d="M 74.5,249.5 C 76.4044,249.738 77.7377,250.738 78.5,252.5C 76.5956,252.262 75.2623,251.262 74.5,249.5 Z"/></g>
<g><path style="opacity:0.604" fill="#192275" d="M 78.5,252.5 C 80.4044,252.738 81.7377,253.738 82.5,255.5C 80.5956,255.262 79.2623,254.262 78.5,252.5 Z"/></g>
<g><path style="opacity:0.863" fill="#1b247c" d="M 90.5,258.5 C 92.099,258.232 93.4324,258.566 94.5,259.5C 94.5654,259.938 94.3988,260.272 94,260.5C 92.6976,259.915 91.531,259.249 90.5,258.5 Z"/></g>
<g><path style="opacity:0.651" fill="#182776" d="M 106.5,259.5 C 106.5,259.167 106.5,258.833 106.5,258.5C 107.833,258.5 109.167,258.5 110.5,258.5C 109.335,260.109 108.001,260.443 106.5,259.5 Z"/></g>
</svg>
